<mxfile host="app.diagrams.net" modified="2021-01-14T11:48:47.793Z" agent="5.0 (Windows NT 10.0; Win64; x64) AppleWebKit/537.36 (KHTML, like Gecko) Chrome/80.0.3987.149 Safari/537.36" etag="euBKcA6vzLC_kMJNt2Vy" version="14.2.2" type="github">
  <diagram name="Page-1" id="7a6c530e-6e37-e111-ec74-82921da8cc10">
    <mxGraphModel dx="1312" dy="688" grid="1" gridSize="10" guides="1" tooltips="1" connect="1" arrows="1" fold="1" page="1" pageScale="1.5" pageWidth="1169" pageHeight="826" background="#184380" math="0" shadow="0">
      <root>
        <mxCell id="0" style=";html=1;" />
        <mxCell id="1" style=";html=1;" parent="0" />
        <mxCell id="23046e2b9bb16c14-116" value="山东省公共资源交易电子保函服务平台" style="whiteSpace=wrap;html=1;rounded=1;shadow=0;strokeColor=none;strokeWidth=2;fillColor=#009BFF;fontSize=20;fontColor=#FFFFFF;align=center;arcSize=3;verticalAlign=top;spacingTop=4;" parent="1" vertex="1">
          <mxGeometry x="795" y="217" width="617" height="550" as="geometry" />
        </mxCell>
        <mxCell id="23046e2b9bb16c14-64" value="Web role instances" style="rounded=1;whiteSpace=wrap;html=1;shadow=0;strokeWidth=2;fillColor=#0072BC;fontSize=12;fontColor=#FFFFFF;align=center;strokeColor=none;arcSize=3;verticalAlign=top;" parent="1" vertex="1">
          <mxGeometry x="1231" y="291" width="150" height="420" as="geometry" />
        </mxCell>
        <mxCell id="23046e2b9bb16c14-65" value="" style="shadow=0;dashed=0;html=1;strokeColor=none;shape=mxgraph.mscae.enterprise.web;fillColor=#FFFFFF;rounded=1;fontSize=11;fontColor=#FFFFFF;align=center;" parent="1" vertex="1">
          <mxGeometry x="1281" y="531" width="50" height="50" as="geometry" />
        </mxCell>
        <mxCell id="23046e2b9bb16c14-66" value="" style="shadow=0;dashed=0;html=1;strokeColor=none;shape=mxgraph.mscae.enterprise.web;fillColor=#FFFFFF;rounded=1;fontSize=11;fontColor=#FFFFFF;align=center;" parent="1" vertex="1">
          <mxGeometry x="1281" y="450" width="50" height="50" as="geometry" />
        </mxCell>
        <mxCell id="23046e2b9bb16c14-67" value="" style="shadow=0;dashed=0;html=1;strokeColor=none;shape=mxgraph.mscae.enterprise.web;fillColor=#FFFFFF;rounded=1;fontSize=11;fontColor=#FFFFFF;align=center;" parent="1" vertex="1">
          <mxGeometry x="1281" y="370" width="50" height="50" as="geometry" />
        </mxCell>
        <mxCell id="23046e2b9bb16c14-117" style="edgeStyle=orthogonalEdgeStyle;rounded=0;elbow=vertical;html=1;startArrow=none;startFill=0;startSize=10;endArrow=none;endFill=0;endSize=10;strokeColor=#FFFFFF;strokeWidth=3;fontSize=20;fontColor=#FFFFFF;entryX=0.004;entryY=0.516;entryPerimeter=0;" parent="1" source="23046e2b9bb16c14-68" target="23046e2b9bb16c14-65" edge="1">
          <mxGeometry relative="1" as="geometry">
            <mxPoint x="1465" y="590" as="targetPoint" />
            <Array as="points">
              <mxPoint x="1271" y="673" />
              <mxPoint x="1271" y="557" />
            </Array>
          </mxGeometry>
        </mxCell>
        <mxCell id="23046e2b9bb16c14-119" style="edgeStyle=orthogonalEdgeStyle;rounded=0;elbow=vertical;html=1;entryX=-0.002;entryY=0.494;entryPerimeter=0;startArrow=none;startFill=0;startSize=10;endArrow=none;endFill=0;endSize=10;strokeColor=#FFFFFF;strokeWidth=3;fontSize=20;fontColor=#FFFFFF;" parent="1" source="23046e2b9bb16c14-68" target="23046e2b9bb16c14-67" edge="1">
          <mxGeometry relative="1" as="geometry">
            <Array as="points">
              <mxPoint x="1271" y="673" />
              <mxPoint x="1271" y="395" />
            </Array>
          </mxGeometry>
        </mxCell>
        <mxCell id="23046e2b9bb16c14-68" value="Gateway" style="shadow=0;dashed=0;html=1;strokeColor=none;shape=mxgraph.mscae.enterprise.gateway;fillColor=#FFFFFF;rounded=0;fontSize=12;fontColor=#FFFFFF;align=center;labelPosition=center;verticalLabelPosition=top;verticalAlign=bottom;" parent="1" vertex="1">
          <mxGeometry x="1281" y="648" width="50" height="50" as="geometry" />
        </mxCell>
        <mxCell id="23046e2b9bb16c14-84" value="" style="rounded=0;whiteSpace=wrap;html=1;shadow=0;strokeWidth=2;fillColor=#F04D22;fontSize=12;fontColor=#FFFFFF;align=center;strokeColor=none;arcSize=6;verticalAlign=top;" parent="1" vertex="1">
          <mxGeometry x="326" y="820" width="300" height="102" as="geometry" />
        </mxCell>
        <mxCell id="23046e2b9bb16c14-85" value="" style="rounded=0;whiteSpace=wrap;html=1;shadow=0;strokeWidth=2;fillColor=#8BC63E;fontSize=12;fontColor=#FFFFFF;align=center;strokeColor=none;arcSize=6;verticalAlign=top;" parent="1" vertex="1">
          <mxGeometry x="626" y="820" width="400" height="102" as="geometry" />
        </mxCell>
        <mxCell id="23046e2b9bb16c14-86" value="" style="rounded=0;whiteSpace=wrap;html=1;shadow=0;strokeWidth=2;fillColor=#0072BC;fontSize=12;fontColor=#FFFFFF;align=center;strokeColor=none;arcSize=3;verticalAlign=top;" parent="1" vertex="1">
          <mxGeometry x="1026" y="820" width="390" height="102" as="geometry" />
        </mxCell>
        <mxCell id="23046e2b9bb16c14-87" value="A" style="text;html=1;strokeColor=none;fillColor=none;align=center;verticalAlign=middle;whiteSpace=wrap;rounded=1;shadow=0;fontSize=30;fontColor=#FFFFFF;fontStyle=1" parent="1" vertex="1">
          <mxGeometry x="326" y="853" width="40" height="35" as="geometry" />
        </mxCell>
        <mxCell id="23046e2b9bb16c14-88" value="B" style="text;html=1;strokeColor=none;fillColor=none;align=center;verticalAlign=middle;whiteSpace=wrap;rounded=1;shadow=0;fontSize=30;fontColor=#FFFFFF;fontStyle=1" parent="1" vertex="1">
          <mxGeometry x="626" y="853" width="40" height="35" as="geometry" />
        </mxCell>
        <mxCell id="23046e2b9bb16c14-89" value="C" style="text;html=1;strokeColor=none;fillColor=none;align=center;verticalAlign=middle;whiteSpace=wrap;rounded=1;shadow=0;fontSize=30;fontColor=#FFFFFF;fontStyle=1" parent="1" vertex="1">
          <mxGeometry x="1026" y="853" width="40" height="35" as="geometry" />
        </mxCell>
        <mxCell id="23046e2b9bb16c14-90" value="Computer" style="verticalLabelPosition=top;html=1;verticalAlign=bottom;strokeColor=none;fillColor=#FFFFFF;shape=mxgraph.azure.computer;rounded=0;shadow=0;fontSize=10;fontColor=#FFFFFF;align=center;labelPosition=center;" parent="1" vertex="1">
          <mxGeometry x="393" y="860" width="50" height="45" as="geometry" />
        </mxCell>
        <mxCell id="23046e2b9bb16c14-91" value="VHD" style="shadow=0;html=1;strokeColor=none;fillColor=#FFFFFF;labelPosition=center;verticalLabelPosition=top;verticalAlign=bottom;shape=mxgraph.azure.vhd;rounded=0;fontSize=10;fontColor=#FFFFFF;align=center;" parent="1" vertex="1">
          <mxGeometry x="483" y="857" width="40" height="50" as="geometry" />
        </mxCell>
        <mxCell id="23046e2b9bb16c14-92" value="+" style="text;html=1;strokeColor=none;fillColor=none;align=center;verticalAlign=middle;whiteSpace=wrap;rounded=1;shadow=0;fontSize=30;fontColor=#FFFFFF;fontStyle=1" parent="1" vertex="1">
          <mxGeometry x="443" y="865" width="40" height="35" as="geometry" />
        </mxCell>
        <mxCell id="23046e2b9bb16c14-93" value="+" style="text;html=1;strokeColor=none;fillColor=none;align=center;verticalAlign=middle;whiteSpace=wrap;rounded=1;shadow=0;fontSize=30;fontColor=#FFFFFF;fontStyle=1" parent="1" vertex="1">
          <mxGeometry x="523" y="865" width="40" height="35" as="geometry" />
        </mxCell>
        <mxCell id="23046e2b9bb16c14-94" value="Server&lt;div&gt;Directory&lt;/div&gt;" style="shadow=0;html=1;strokeColor=none;shape=mxgraph.mscae.enterprise.server_directory;fillColor=#FFFFFF;rounded=0;fontSize=10;fontColor=#FFFFFF;align=center;verticalAlign=bottom;labelPosition=center;verticalLabelPosition=top;" parent="1" vertex="1">
          <mxGeometry x="563" y="858" width="36" height="50" as="geometry" />
        </mxCell>
        <mxCell id="23046e2b9bb16c14-95" value="VM Feature" style="shadow=0;html=1;strokeColor=none;fillColor=#FFFFFF;labelPosition=center;verticalLabelPosition=top;verticalAlign=bottom;shape=mxgraph.azure.virtual_machine_feature;rounded=0;fontSize=10;fontColor=#FFFFFF;align=center;" parent="1" vertex="1">
          <mxGeometry x="684" y="861" width="50" height="45" as="geometry" />
        </mxCell>
        <mxCell id="23046e2b9bb16c14-96" value="+" style="text;html=1;strokeColor=none;fillColor=none;align=center;verticalAlign=middle;whiteSpace=wrap;rounded=1;shadow=0;fontSize=30;fontColor=#FFFFFF;fontStyle=1" parent="1" vertex="1">
          <mxGeometry x="734" y="866" width="40" height="35" as="geometry" />
        </mxCell>
        <mxCell id="23046e2b9bb16c14-97" value="VHD" style="shadow=0;html=1;strokeColor=none;fillColor=#FFFFFF;labelPosition=center;verticalLabelPosition=top;verticalAlign=bottom;shape=mxgraph.azure.vhd;rounded=0;fontSize=10;fontColor=#FFFFFF;align=center;" parent="1" vertex="1">
          <mxGeometry x="774" y="858" width="40" height="50" as="geometry" />
        </mxCell>
        <mxCell id="23046e2b9bb16c14-98" value="3rd Party&lt;div&gt;Integration&lt;/div&gt;" style="shadow=0;html=1;strokeColor=none;fillColor=#FFFFFF;labelPosition=center;verticalLabelPosition=top;verticalAlign=bottom;shape=mxgraph.office.communications.3rd_party_integration;rounded=0;fontSize=10;fontColor=#FFFFFF;align=center;" parent="1" vertex="1">
          <mxGeometry x="854" y="856" width="54" height="55" as="geometry" />
        </mxCell>
        <mxCell id="23046e2b9bb16c14-99" value="+" style="text;html=1;strokeColor=none;fillColor=none;align=center;verticalAlign=middle;whiteSpace=wrap;rounded=1;shadow=0;fontSize=30;fontColor=#FFFFFF;fontStyle=1" parent="1" vertex="1">
          <mxGeometry x="814" y="866" width="40" height="35" as="geometry" />
        </mxCell>
        <mxCell id="23046e2b9bb16c14-100" value="+" style="text;html=1;strokeColor=none;fillColor=none;align=center;verticalAlign=middle;whiteSpace=wrap;rounded=1;shadow=0;fontSize=30;fontColor=#FFFFFF;fontStyle=1" parent="1" vertex="1">
          <mxGeometry x="908" y="866" width="40" height="35" as="geometry" />
        </mxCell>
        <mxCell id="23046e2b9bb16c14-101" value="Data Migration&lt;div&gt;Wizard&lt;/div&gt;" style="shadow=0;html=1;strokeColor=none;shape=mxgraph.mscae.intune.data_migration_wizard;fillColor=#FFFFFF;rounded=0;fontSize=10;fontColor=#FFFFFF;align=center;verticalAlign=bottom;labelPosition=center;verticalLabelPosition=top;" parent="1" vertex="1">
          <mxGeometry x="948" y="859" width="50" height="48" as="geometry" />
        </mxCell>
        <mxCell id="23046e2b9bb16c14-102" value="VM Feature" style="shadow=0;html=1;strokeColor=none;fillColor=#FFFFFF;labelPosition=center;verticalLabelPosition=top;verticalAlign=bottom;shape=mxgraph.azure.virtual_machine_feature;rounded=0;fontSize=10;fontColor=#FFFFFF;align=center;" parent="1" vertex="1">
          <mxGeometry x="1086" y="861" width="50" height="45" as="geometry" />
        </mxCell>
        <mxCell id="23046e2b9bb16c14-103" value="" style="line;strokeWidth=2;direction=south;html=1;rounded=0;shadow=0;fillColor=none;fontSize=30;fontColor=#FFFFFF;align=center;strokeColor=#FFFFFF;" parent="1" vertex="1">
          <mxGeometry x="366" y="820" width="10" height="102" as="geometry" />
        </mxCell>
        <mxCell id="23046e2b9bb16c14-104" value="" style="line;strokeWidth=2;direction=south;html=1;rounded=0;shadow=0;fillColor=none;fontSize=30;fontColor=#FFFFFF;align=center;strokeColor=#FFFFFF;" parent="1" vertex="1">
          <mxGeometry x="666" y="820" width="10" height="102" as="geometry" />
        </mxCell>
        <mxCell id="23046e2b9bb16c14-105" value="" style="line;strokeWidth=2;direction=south;html=1;rounded=0;shadow=0;fillColor=none;fontSize=30;fontColor=#FFFFFF;align=center;strokeColor=#FFFFFF;" parent="1" vertex="1">
          <mxGeometry x="1066" y="820" width="10" height="102" as="geometry" />
        </mxCell>
        <mxCell id="23046e2b9bb16c14-106" value="+" style="text;html=1;strokeColor=none;fillColor=none;align=center;verticalAlign=middle;whiteSpace=wrap;rounded=1;shadow=0;fontSize=30;fontColor=#FFFFFF;fontStyle=1" parent="1" vertex="1">
          <mxGeometry x="1136" y="866" width="40" height="35" as="geometry" />
        </mxCell>
        <mxCell id="23046e2b9bb16c14-107" value="Azure&lt;div&gt;Website&lt;/div&gt;" style="verticalLabelPosition=top;html=1;verticalAlign=bottom;strokeColor=none;fillColor=#FFFFFF;shape=mxgraph.azure.azure_website;rounded=0;shadow=0;fontSize=10;fontColor=#FFFFFF;align=center;labelPosition=center;" parent="1" vertex="1">
          <mxGeometry x="1176" y="858" width="50" height="50" as="geometry" />
        </mxCell>
        <mxCell id="23046e2b9bb16c14-108" value="+" style="text;html=1;strokeColor=none;fillColor=none;align=center;verticalAlign=middle;whiteSpace=wrap;rounded=1;shadow=0;fontSize=30;fontColor=#FFFFFF;fontStyle=1" parent="1" vertex="1">
          <mxGeometry x="1226" y="866" width="40" height="35" as="geometry" />
        </mxCell>
        <mxCell id="23046e2b9bb16c14-109" value="MySQL&lt;div&gt;Database&lt;/div&gt;" style="verticalLabelPosition=top;html=1;verticalAlign=bottom;strokeColor=none;fillColor=#FFFFFF;shape=mxgraph.azure.mysql_database;rounded=0;shadow=0;fontSize=10;fontColor=#FFFFFF;align=center;labelPosition=center;" parent="1" vertex="1">
          <mxGeometry x="1266" y="859" width="37.5" height="50" as="geometry" />
        </mxCell>
        <mxCell id="23046e2b9bb16c14-110" value="+" style="text;html=1;strokeColor=none;fillColor=none;align=center;verticalAlign=middle;whiteSpace=wrap;rounded=1;shadow=0;fontSize=30;fontColor=#FFFFFF;fontStyle=1" parent="1" vertex="1">
          <mxGeometry x="1304" y="866" width="40" height="35" as="geometry" />
        </mxCell>
        <mxCell id="23046e2b9bb16c14-111" value="Azure&lt;div&gt;Storage&lt;/div&gt;" style="shadow=0;html=1;strokeColor=none;labelPosition=center;verticalLabelPosition=top;verticalAlign=bottom;shape=mxgraph.mscae.cloud.azure_storage;fillColor=#FFFFFF;rounded=0;fontSize=10;fontColor=#FFFFFF;align=center;" parent="1" vertex="1">
          <mxGeometry x="1344" y="862" width="50" height="43" as="geometry" />
        </mxCell>
        <mxCell id="23046e2b9bb16c14-113" value="Title" style="text;strokeColor=none;fillColor=none;html=1;fontSize=24;fontStyle=1;verticalAlign=middle;align=center;rounded=0;shadow=0;fontColor=#FFFFFF;" parent="1" vertex="1">
          <mxGeometry x="120" y="40" width="1510" height="40" as="geometry" />
        </mxCell>
        <mxCell id="23046e2b9bb16c14-114" value="Subtitle" style="text;html=1;strokeColor=none;fillColor=none;align=center;verticalAlign=middle;whiteSpace=wrap;rounded=0;shadow=0;fontSize=10;fontColor=#009BFF;" parent="1" vertex="1">
          <mxGeometry x="114" y="90" width="1526" height="20" as="geometry" />
        </mxCell>
        <mxCell id="23046e2b9bb16c14-115" value="&lt;h1&gt;Heading&lt;/h1&gt;&lt;p&gt;Lorem ipsum dolor sit amet, consectetur adipisicing elit, sed do eiusmod tempor incididunt ut labore et dolore magna aliqua.&lt;/p&gt;" style="text;html=1;strokeColor=none;fillColor=none;spacing=5;spacingTop=-20;whiteSpace=wrap;overflow=hidden;rounded=0;shadow=0;fontSize=10;fontColor=#FFFFFF;align=left;" parent="1" vertex="1">
          <mxGeometry x="323" y="952" width="1041" height="70" as="geometry" />
        </mxCell>
        <mxCell id="23046e2b9bb16c14-118" style="edgeStyle=orthogonalEdgeStyle;rounded=0;elbow=vertical;html=1;startArrow=none;startFill=0;startSize=10;endArrow=none;endFill=0;endSize=10;strokeColor=#FFFFFF;strokeWidth=3;fontSize=20;fontColor=#FFFFFF;entryX=-0.009;entryY=0.502;entryPerimeter=0;" parent="1" source="23046e2b9bb16c14-68" target="23046e2b9bb16c14-66" edge="1">
          <mxGeometry relative="1" as="geometry">
            <mxPoint x="1291.3333333333333" y="566.6666666666666" as="targetPoint" />
            <mxPoint x="1316" y="658" as="sourcePoint" />
            <Array as="points">
              <mxPoint x="1271" y="673" />
              <mxPoint x="1271" y="475" />
            </Array>
          </mxGeometry>
        </mxCell>
        <mxCell id="K7QrBNpouQ2XZ0HAdniS-2" value="" style="rounded=0;whiteSpace=wrap;html=1;shadow=0;strokeWidth=2;fillColor=#F04D22;fontSize=12;fontColor=#FFFFFF;align=center;strokeColor=none;arcSize=6;verticalAlign=top;" vertex="1" parent="1">
          <mxGeometry x="840" y="291" width="380" height="309" as="geometry" />
        </mxCell>
        <mxCell id="K7QrBNpouQ2XZ0HAdniS-3" value="" style="rounded=0;whiteSpace=wrap;html=1;shadow=0;strokeWidth=2;fillColor=#8BC63E;fontSize=12;fontColor=#FFFFFF;align=center;strokeColor=none;arcSize=6;verticalAlign=top;" vertex="1" parent="1">
          <mxGeometry x="840" y="610" width="380" height="100" as="geometry" />
        </mxCell>
      </root>
    </mxGraphModel>
  </diagram>
</mxfile>
